<?xml version="1.0" encoding="utf-8"?>
<!-- Generator: Adobe Illustrator 18.0.0, SVG Export Plug-In . SVG Version: 6.00 Build 0)  -->
<!DOCTYPE svg PUBLIC "-//W3C//DTD SVG 1.1//EN" "http://www.w3.org/Graphics/SVG/1.1/DTD/svg11.dtd">
<svg version="1.1" id="Layer_1" xmlns="http://www.w3.org/2000/svg" xmlns:xlink="http://www.w3.org/1999/xlink" x="0px" y="0px"
	 viewBox="0 0 64 64" enable-background="new 0 0 64 64" xml:space="preserve">
<g>
	<g>
		<g>
			<path fill="#5A5C84" d="M32,0c17.7,0,32,14.3,32,32S49.7,64,32,64S0,49.7,0,32S14.3,0,32,0z"/>
		</g>
	</g>
	<g>
		<g>
			<g>
				<path fill="#FFFFFF" d="M26,40.4l-5.5,5.5c1.3,1.3,1.2,3.5-0.4,4.7c-1,0.7-2.3,0.7-3.4,0.1c-1.1-0.7-1.6-2-1.4-3.1
					c-1,0.1-2.1-0.3-2.8-1.2c-0.8-1-0.8-2.5-0.1-3.5c1.1-1.6,3.3-1.7,4.7-0.4l5.3-5.3L26,40.4z"/>
			</g>
		</g>
		<g>
			<g>
				<path fill="#BC645B" d="M51.9,33.6C52,33.6,52,33.6,51.9,33.6L29.9,11.4c-3.8,3.8-6.2,9.1-6.8,14.2c-0.2,1.7-0.6,3.4-1.5,4.9
					c-2,3.4-1.7,7.6,0.9,10.2c2.4,2.4,6.1,2.8,9.4,1.4c2.1-1,4.3-1.5,6.6-1.8c4.4-0.6,8.9-2.6,12.3-5.6
					C51.3,34.4,51.7,34.1,51.9,33.6L51.9,33.6z"/>
			</g>
		</g>
		<g>
			<g>
				<path fill="#DD97AB" d="M47.9,15.7c6.1,6.1,8,14.2,4.2,18s-11.9,2-18-4.2c-6.1-6.1-8-14.2-4.2-18S41.7,9.6,47.9,15.7z"/>
			</g>
		</g>
		<g>
			<g>
				
					<ellipse transform="matrix(0.7071 -0.7071 0.7071 0.7071 -3.3389 35.8638)" fill="#FFFFFF" cx="41.6" cy="22" rx="2.3" ry="4.1"/>
			</g>
		</g>
	</g>
</g>
</svg>
