<?xml version="1.0" encoding="utf-8"?>
<!-- Generator: Adobe Illustrator 18.0.0, SVG Export Plug-In . SVG Version: 6.00 Build 0)  -->
<!DOCTYPE svg PUBLIC "-//W3C//DTD SVG 1.1//EN" "http://www.w3.org/Graphics/SVG/1.1/DTD/svg11.dtd">
<svg version="1.1" id="Layer_1" xmlns="http://www.w3.org/2000/svg" xmlns:xlink="http://www.w3.org/1999/xlink" x="0px" y="0px"
	 viewBox="0 0 64 64" enable-background="new 0 0 64 64" xml:space="preserve">
<g>
	<g>
		<g>
			<path d="M36,25c-5.5,0-10,4.5-10,10s4.5,10,10,10s10-4.5,10-10S41.5,25,36,25z"/>
		</g>
	</g>
	<g>
		<g>
			<path d="M59,15h-8l-6.4-8.2C44.2,6.3,43.6,6,43,6H29c-0.6,0-1.2,0.3-1.6,0.8L21,15c0,0-3.3,0-6,0v-2c0-1.1-0.9-2-2-2H7
				c-1.1,0-2,0.9-2,2v2c-2.8,0-5,2.2-5,5v32c0,2.8,2.2,5,5,5h54c2.8,0,5-2.2,5-5V20C64,17.2,61.8,15,59,15z M36,51
				c-8.8,0-16-7.2-16-16s7.2-16,16-16s16,7.2,16,16S44.8,51,36,51z"/>
		</g>
	</g>
</g>
</svg>
